<svg width="245" height="13" viewBox="0 0 245 13" fill="none" xmlns="http://www.w3.org/2000/svg">
<path d="M1 6.5C8.36364 0.5 15.7273 0.5 23.0909 6.5C30.4545 12.5 37.8182 12.5 45.1818 6.5C52.5455 0.5 59.9091 0.5 67.2727 6.5C74.6364 12.5 82 12.5 89.3636 6.5C96.7273 0.5 104.091 0.5 111.455 6.5C118.818 12.5 126.182 12.5 133.545 6.5C140.909 0.5 148.273 0.5 155.636 6.5C163 12.5 170.364 12.5 177.727 6.5C185.091 0.5 192.455 0.5 199.818 6.5C207.182 12.5 214.545 12.5 221.909 6.5C229.273 0.5 236.636 0.5 244 6.5" stroke="#304FFE" stroke-width="3"/>
</svg>
