<svg width="137" height="137" viewBox="0 0 137 137" fill="none" xmlns="http://www.w3.org/2000/svg">
<mask id="path-1-inside-1_906_858" fill="white">
<path fill-rule="evenodd" clip-rule="evenodd" d="M73.2334 21.2082C88.9178 24.0027 102.451 35.4032 107.177 51.7418C113.806 74.6559 100.605 98.6053 77.6906 105.234C54.7765 111.863 30.8271 98.6616 24.1981 75.7476C21.7255 67.2007 22.0119 58.5097 24.5322 50.6273L73.2334 21.2082Z"/>
</mask>
<path fill-rule="evenodd" clip-rule="evenodd" d="M73.2334 21.2082C88.9178 24.0027 102.451 35.4032 107.177 51.7418C113.806 74.6559 100.605 98.6053 77.6906 105.234C54.7765 111.863 30.8271 98.6616 24.1981 75.7476C21.7255 67.2007 22.0119 58.5097 24.5322 50.6273L73.2334 21.2082Z" fill="#304FFE"/>
<path d="M107.177 51.7418L108.82 51.2665L107.177 51.7418ZM73.2334 21.2082L72.3489 19.7441L72.8998 19.4113L73.5334 19.5242L73.2334 21.2082ZM77.6906 105.234L78.166 106.877L77.6906 105.234ZM24.1981 75.7476L25.8413 75.2722L24.1981 75.7476ZM24.5322 50.6273L22.9029 50.1063L23.0984 49.495L23.6478 49.1631L24.5322 50.6273ZM105.534 52.2172C100.995 36.5281 88.0012 25.5768 72.9333 22.8922L73.5334 19.5242C89.8345 22.4285 103.906 34.2784 108.82 51.2665L105.534 52.2172ZM77.2152 103.591C99.2218 97.2247 111.901 74.2238 105.534 52.2172L108.82 51.2665C115.712 75.088 101.988 99.9859 78.166 106.877L77.2152 103.591ZM25.8413 75.2722C32.2077 97.2788 55.2087 109.958 77.2152 103.591L78.166 106.877C54.3444 113.769 29.4465 100.044 22.555 76.2229L25.8413 75.2722ZM26.1615 51.1482C23.7413 58.7174 23.4659 67.0615 25.8413 75.2722L22.555 76.2229C19.9851 67.3398 20.2825 58.302 22.9029 50.1063L26.1615 51.1482ZM23.6478 49.1631L72.3489 19.7441L74.1178 22.6723L25.4166 52.0914L23.6478 49.1631Z" fill="#E3F2FD" mask="url(#path-1-inside-1_906_858)"/>
<path d="M83.9946 71.6768C82.103 76.9307 74.8435 86.6642 60.939 83.5673C47.0344 80.4704 44.9849 68.6635 45.6982 63.1471" stroke="#E3F2FD" stroke-width="2.99343" stroke-linecap="round" stroke-linejoin="round"/>
<path d="M82.905 70.0174L86.3554 73.4462" stroke="#E3F2FD" stroke-width="2.99343" stroke-linecap="round" stroke-linejoin="round"/>
<path d="M47.9319 62.2258L43.3525 63.8661" stroke="#E3F2FD" stroke-width="2.99343" stroke-linecap="round" stroke-linejoin="round"/>
<ellipse rx="3.63488" ry="7.05594" transform="matrix(-0.976083 -0.2174 -0.2174 0.976083 79.9298 51.7542)" fill="#E3F2FD"/>
<ellipse rx="3.63488" ry="7.05594" transform="matrix(-0.976083 -0.2174 -0.2174 0.976083 57.8073 46.8265)" fill="#E3F2FD"/>
<path fill-rule="evenodd" clip-rule="evenodd" d="M24.6429 50.5606L73.5012 21.0465C71.5651 27.2002 68.2153 33.0126 63.4418 37.9791C53.0473 48.7938 38.3773 53.0221 24.6429 50.5606Z" fill="#E3F2FD"/>
</svg>
