<svg xmlns="http://www.w3.org/2000/svg" width="146" height="6" viewBox="0 0 146 6" fill="none">
<path d="M1 3C5.36364 0.333333 9.72727 0.333333 14.0909 3C18.4545 5.66667 22.8182 5.66667 27.1818 3C31.5455 0.333333 35.9091 0.333333 40.2727 3C44.6364 5.66667 49 5.66667 53.3636 3C57.7273 0.333333 62.0909 0.333333 66.4545 3C70.8182 5.66667 75.1818 5.66667 79.5455 3C83.9091 0.333333 88.2727 0.333333 92.6364 3C97 5.66667 101.364 5.66667 105.727 3C110.091 0.333333 114.455 0.333333 118.818 3C123.182 5.66667 127.545 5.66667 131.909 3C136.273 0.333333 140.636 0.333333 145 3" stroke="#304FFE" stroke-width="1.18069"/>
</svg>