<svg xmlns="http://www.w3.org/2000/svg" width="141" height="141" viewBox="0 0 141 141" fill="none">
<mask id="path-1-inside-1_909_870" fill="white">
<path fill-rule="evenodd" clip-rule="evenodd" d="M87.7967 114.098C72.5987 118.876 55.327 115.03 43.5779 102.731C27.1004 85.4833 27.725 58.1435 44.9729 41.6659C62.2208 25.1884 89.5606 25.813 106.038 43.0609C112.184 49.4943 115.951 57.3318 117.363 65.486L87.7967 114.098Z"/>
</mask>
<path fill-rule="evenodd" clip-rule="evenodd" d="M87.7967 114.098C72.5987 118.876 55.327 115.03 43.5779 102.731C27.1004 85.4833 27.725 58.1435 44.9729 41.6659C62.2208 25.1884 89.5606 25.813 106.038 43.0609C112.184 49.4943 115.951 57.3318 117.363 65.486L87.7967 114.098Z" fill="#AEEA00"/>
<path d="M43.5779 102.731L42.3411 103.913L42.3411 103.913L43.5779 102.731ZM87.7967 114.098L89.2581 114.987L88.9237 115.537L88.3097 115.73L87.7967 114.098ZM44.9729 41.6659L43.7913 40.4291L44.9729 41.6659ZM106.038 43.0609L104.801 44.2425L106.038 43.0609ZM117.363 65.486L119.049 65.1941L119.158 65.8265L118.825 66.3749L117.363 65.486ZM44.8148 101.55C56.0968 113.359 72.6832 117.057 87.2836 112.466L88.3097 115.73C72.5143 120.696 54.5572 116.7 42.3411 103.913L44.8148 101.55ZM46.1545 42.9028C29.5896 58.7277 28.9898 84.9848 44.8148 101.55L42.3411 103.913C25.211 85.9818 25.8603 57.5592 43.7913 40.4291L46.1545 42.9028ZM104.801 44.2425C88.9764 27.6776 62.7193 27.0779 46.1545 42.9028L43.7913 40.4291C61.7223 23.299 90.1449 23.9483 107.275 41.8793L104.801 44.2425ZM115.678 65.7779C114.322 57.9478 110.706 50.4229 104.801 44.2425L107.275 41.8793C113.663 48.5658 117.58 56.7159 119.049 65.1941L115.678 65.7779ZM118.825 66.3749L89.2581 114.987L86.3352 113.209L115.902 64.5971L118.825 66.3749Z" fill="#E8F5E9" mask="url(#path-1-inside-1_909_870)"/>
<path d="M93.5439 67.2554C95.8786 72.328 97.5264 84.3582 85.4404 91.8984C73.3543 99.4387 63.615 92.4565 60.2561 88.0229" stroke="#E8F5E9" stroke-width="2.99343" stroke-linecap="round" stroke-linejoin="round"/>
<path d="M91.6034 66.8359L96.4677 66.8617" stroke="#E8F5E9" stroke-width="2.99343" stroke-linecap="round" stroke-linejoin="round"/>
<path d="M61.2032 85.7998L59.0878 90.1801" stroke="#E8F5E9" stroke-width="2.99343" stroke-linecap="round" stroke-linejoin="round"/>
<ellipse rx="3.63488" ry="7.05594" transform="matrix(-0.848426 0.529314 0.529314 0.848426 76.6773 55.8987)" fill="#E8F5E9"/>
<ellipse rx="3.63488" ry="7.05594" transform="matrix(-0.848426 0.529314 0.529314 0.848426 57.4478 67.8953)" fill="#E8F5E9"/>
<path fill-rule="evenodd" clip-rule="evenodd" d="M117.296 65.5964L87.6338 114.365C86.5035 108.014 86.7843 101.311 88.7187 94.6997C92.9309 80.3031 103.981 69.768 117.296 65.5964Z" fill="#E8F5E9"/>
</svg>