<svg xmlns="http://www.w3.org/2000/svg" width="101" height="221" viewBox="0 0 101 221" fill="none">
<g clip-path="url(#clip0_908_911)">
<path fill-rule="evenodd" clip-rule="evenodd" d="M38.2958 5.04579C33.9802 7.19387 30.4176 12.8957 31.8228 17.3214C31.7287 19.4912 34.0099 22.55 34.6192 22.4748C35.8217 23.8517 38.6219 20.768 40.1993 19.7531C42.6294 19.7231 43.6951 15.8799 44.2119 14.3562C45.0565 11.8651 43.7476 8.37653 41.2309 5.8C39.8867 4.4236 39.6617 4.36587 38.2958 5.04579ZM18.9491 26.4724C18.1538 27.1574 17.998 31.5004 19.0089 33.7276C20.2492 37.9849 24.8594 41.104 29.4701 41.6786C31.9256 41.9847 36.3445 41.2207 36.7488 40.3817C36.9719 39.9188 36.244 35.5281 35.763 34.1213C34.1805 29.4957 29.9217 26.218 24.9673 25.8134C23.495 25.6931 19.3237 26.1499 18.9491 26.4724ZM50.4367 25.9013C49.6982 26.3156 48.6927 27.0091 48.2022 27.442C45.3784 29.9331 42.7313 35.2782 42.8244 40.0287L42.2194 41.2599L42.6158 42.5258L43.1688 42.8161C44.337 43.7354 49.6038 40.2471 51.0251 39.0155C52.6172 37.6356 53.1484 35.2865 53.8269 33.2348C54.2612 31.9212 54.2807 31.4903 54.0021 29.3656C53.6495 26.6793 53.0143 25.1525 52.2482 25.1495C51.9904 25.1486 51.175 25.4869 50.4367 25.9013ZM66.542 27.5569C64.0469 28.69 61.2878 31.0231 60.1847 33.9C58.8929 35.8044 58.1326 40.9628 58.5392 41.2757C58.9417 41.5855 64.4506 40.8258 65.9029 40.3659C69.23 39.3127 71.3877 36.4956 72.3766 33.9243C72.8181 32.7757 72.8442 32.3519 72.5976 30.348C72.4064 28.7947 72.174 27.8616 71.8633 27.402C71.4197 26.7458 71.3608 26.7339 69.4663 26.9202C68.3749 27.0273 67.0937 27.3063 66.542 27.5569ZM12.7279 47.6401L11.5684 48.2137L11.7574 49.4687C12.1389 51.9988 13.9846 54.7048 16.9147 55.6231C19.6475 56.4799 24.6429 56.2528 27.3291 54.4559L27.5461 52.9009L26.7417 51.79C25.1821 49.6359 22.2999 47.7796 19.453 47.0951C17.4636 46.617 14.2734 46.8753 12.7279 47.6401ZM65.8141 50.6435C61.9717 51.6922 58.1668 53.4701 55.5834 55.4241C51.5181 58.4989 49.0689 61.9459 47.4009 66.9414C46.5306 69.5486 45.2781 71.8428 45.789 75.0073C45.7347 78.452 46.9386 78.1837 48.0647 77.356C49.0279 76.9183 62.9552 65.7145 67.0722 62.2912C71.7206 58.4262 74.0488 56.2856 76.9361 53.2213C78.2695 51.8067 78.3169 51.6229 78.45 51.6065C78.8546 51.5565 78.6131 51.5029 78.39 52.0921C77.5085 54.4237 69.0334 61.92 60.356 68.3064C58.5886 69.6071 55.3422 72.3509 53.3598 73.8328C51.3777 75.315 49.9069 77.0115 49.4691 77.3021C49.0315 77.5923 48.6515 77.9059 48.5964 78.0076C48.5412 78.1093 48.2193 78.25 47.9309 78.4484C47.1984 78.9523 47.751 79.568 49.2099 79.9415C57.4965 82.063 66.4396 80.0233 72.7293 74.5784C74.3226 73.1988 77.3057 69.4276 78.2935 67.5445C80.571 63.2014 81.4921 58.2082 81.1473 52.0715C80.9996 49.4446 80.8151 49.3027 77.5125 49.2804C74.7162 49.2612 68.0187 50.0416 65.8141 50.6435ZM13.7839 63.604C10.9959 64.3095 10.8122 64.4085 10.7478 65.2436C10.5026 68.4248 13.0506 75.5255 15.8252 79.3927C19.4917 84.5031 24.5206 87.8813 30.211 89.0569C32.5937 89.5491 32.7939 89.5502 36.5502 89.0935C40.6917 88.5897 42.0273 88.1601 45.0949 86.3434C46.2047 85.6863 46.3001 85.5629 46.0571 85.0978C45.7356 84.4824 45.6874 84.4652 42.8217 83.9366C34.9907 82.4923 22.8329 76.0359 14.075 68.6705C11.9672 66.898 11.9195 66.9623 11.8367 66.2918C11.7016 65.1985 12.3775 65.9087 14.2708 67.5451C22.7577 74.8797 33.5425 80.7289 41.9492 82.7737C43.1415 83.0636 45.3174 83.6282 45.2011 82.6865L46.0401 82.7572L45.397 78.3742L44.7536 73.9917L43.8266 72.7722C40.3425 68.1882 34.5813 64.7266 28.2665 63.4225C23.8841 62.5177 17.775 62.5943 13.7839 63.604ZM73.4929 86.3783C63.1315 88.4383 55.2469 94.8032 51.9778 103.747C50.852 106.827 50.0052 107.27 51.0697 113.564L52.1019 118.034L53.3564 118.776C56.7409 120.889 63.5108 121.032 67.7914 119.522C74.1878 117.265 78.745 111.335 80.5563 102.912C81.4963 98.5405 81.5855 91.9242 80.7461 88.846C80.4842 87.8861 80.2838 86.7437 80.3009 86.3072L80.1542 86.021L78.5064 85.7395C77.5023 85.8635 76.5309 85.945 76.348 85.921C76.1645 85.8968 74.88 86.1026 73.4929 86.3783ZM22.3134 96.6339C22.3366 96.8214 21.7711 97.706 21.3644 98.7353C20.9578 99.7646 19.9976 101.269 20.2008 102.914C19.8766 105.068 19.757 106.105 20.1155 109.021C20.4904 112.07 21.3198 112.537 22.1487 114.204C23.4663 116.851 24.6318 118.285 26.8373 119.97C29.1161 121.711 31.4716 122.621 34.7044 123.01C38.9444 123.519 44.3179 122.105 48.5342 119.372L50.2427 118.264L49.6304 113.359L49.0187 108.454L48.1637 107.229C44.7775 102.373 39.6895 98.7683 33.9763 97.1771C29.7382 95.9966 22.1917 95.6487 22.3134 96.6339ZM36.5883 129.698C27.8699 130.879 20.1398 131.657 19.5704 131.801C18.5833 132.049 18.1098 132.865 17.705 134.183C16.9854 136.524 17.5114 139.773 18.1792 143.848C19.25 150.381 21.7272 156.042 24.6291 158.586L25.692 159.518L55.4419 154.779L86.0347 152.062L86.839 150.9C90.4758 145.643 90.6397 131.68 87.1327 125.883C86.4189 124.703 86.335 124.646 85.3168 124.646C85.4584 122.226 51.348 126.799 36.5883 129.698ZM27.7655 159.956C26.8762 158.713 37.9679 202.73 38.2275 203.398C38.2427 203.437 38.6838 203.127 39.2074 202.711C40.9465 201.326 43.5594 199.826 45.8133 198.92C47.7498 198.142 48.546 197.961 51.9167 197.535C55.2087 197.119 56.1298 197.088 58.0266 197.331C67.8335 198.59 73.7122 203.977 76.2346 212.662L77.5346 212.501L81.08 212.063L83.5618 211.756L84.8583 212.199C84.8071 211.772 84.6101 198.595 84.4207 182.919C84.2314 167.243 84.1062 153.234 83.9385 154.311C84.5994 150.065 26.4684 158.143 27.7655 159.956Z" fill="#FBE9E7"/>
<path fill-rule="evenodd" clip-rule="evenodd" d="M36.9311 5.20475C34.1021 6.68443 31.5995 9.80574 30.8886 12.7411C29.9564 16.5893 30.8385 20.5149 33.2488 23.2443C33.6799 23.7326 33.9996 24.3776 34.0624 24.8863C34.2989 26.8005 36.3594 30.8975 38.3634 33.4388L39.6493 35.0692L40.5242 42.0861L37.7473 40.0858L37.4311 37.6145C36.8107 32.7654 34.4824 29.1795 30.5986 27.092C27.4656 25.408 24.2572 24.9793 20.2335 25.7076C18.8917 25.9506 17.6633 26.2867 17.5038 26.4549C16.8677 27.1254 16.6577 29.24 16.9756 31.7738C17.3543 34.792 18.2495 36.7437 20.2456 38.902C24.0345 42.9991 29.9551 44.2993 35.9591 42.3528L37.6771 41.796L38.7415 42.726C40.9528 44.6585 40.7326 43.7729 42.4407 57.5983L43.961 69.9036L41.3685 66.0486C38.6663 62.0305 36.5939 59.4374 33.9052 56.712C32.4318 55.2181 29.9892 53.2668 29.0792 52.8566C28.8649 52.7599 28.2421 52.1072 27.6953 51.4057C26.33 49.655 23.5147 47.6548 21.3234 46.8784C17.9234 45.6739 14.7615 45.8052 11.4426 47.2885C9.68427 48.0745 9.58485 48.3287 10.1294 50.6494C11.766 57.6267 20.4234 60.0854 27.4342 55.5644L28.8307 54.6639L29.5442 55.0912C32.9844 57.1521 40.227 66.2745 43.1096 72.1777C44.1893 74.3883 44.2222 74.5166 44.7917 78.7241C45.2174 81.8709 45.2983 83.0248 45.0948 83.0499C44.2954 83.1487 39.9391 82.048 37.394 81.1042C33.8644 79.7952 28.261 77.0235 24.5634 74.7577C21.72 73.0154 16.5001 69.1472 13.929 66.877C12.3716 65.502 11.3369 65.2082 11.4563 66.1748C11.5383 66.8384 12.1938 67.5538 14.3792 69.3643C19.9582 73.9859 25.2635 77.3981 31.4975 80.3748C35.1701 82.1285 40.8495 84.1021 43.0458 84.3885C43.9518 84.5065 44.954 84.7208 45.2732 84.8647L45.8534 85.1266L47.3186 97.4284C48.1245 104.194 48.9761 111.604 49.2115 113.893L49.6393 118.057L47.6345 119.299C44.3212 121.353 42.6438 121.936 38.5283 122.46C34.5888 122.961 33.1033 122.821 29.9961 121.654C27.7149 120.797 24.6793 118.37 23.3508 116.339C21.5877 113.644 20.8035 111.327 20.5577 108.083C20.2953 104.619 20.6254 102.153 21.7752 98.9868C22.4687 97.0779 22.6046 96.4445 22.3682 96.2238C21.6453 95.5486 20.8397 96.4416 20.0585 98.7853C16.4991 109.461 20.7898 120.168 29.8752 123.281C32.7453 124.265 34.4691 124.502 37.4515 124.322C41.2137 124.095 45.4829 122.67 48.5919 120.604C49.2927 120.138 49.9224 119.75 49.9912 119.742C50.0602 119.733 50.2932 121.155 50.509 122.901C50.892 126.002 50.889 126.08 50.3818 126.259C49.6349 126.522 19.1498 130.728 18.8797 130.605C18.7554 130.549 18.3941 130.602 18.0767 130.724C17.6392 130.892 17.3528 131.384 16.8935 132.754C15.9792 135.481 15.8662 137.562 16.3939 141.944C16.9197 146.313 17.8116 149.645 19.336 152.937C20.618 155.706 21.6326 157.196 23.4348 158.957C24.5996 160.095 25.0216 160.363 25.5446 160.299C26.0316 160.239 26.2434 160.35 26.3747 160.734C26.6697 161.597 36.2566 202.304 36.3861 203.242C36.4524 203.723 36.6485 204.266 36.8217 204.449C36.9949 204.632 45.6286 206.852 56.0074 209.382L74.8779 213.983L79.907 213.317C84.7882 212.671 84.9381 212.637 84.9953 212.146C85.0279 211.869 84.8773 198.699 84.6607 182.88C84.4444 167.062 84.2867 153.881 84.3105 153.59C84.3444 153.179 84.5478 153.021 85.2284 152.879C85.8259 152.755 86.1609 152.535 86.2863 152.187C86.3872 151.906 86.7921 151.103 87.1862 150.402C88.6966 147.715 89.6084 143.839 89.7903 139.331C89.9303 135.861 89.1964 129.869 88.3343 127.445C87.7305 125.747 85.8345 122.491 85.4698 122.526C85.1288 122.558 72.6651 123.897 62.5125 124.99L52.5857 126.06L51.8022 119.718L52.6315 120.093C54.2847 120.839 57.8112 121.641 59.8854 121.741C66.3763 122.056 71.7537 119.663 75.7216 114.695C80.5204 108.685 82.4006 100.163 81.1695 89.9982C80.6996 86.1176 80.5135 85.6072 79.6087 85.719C78.8292 85.8153 78.8072 86.6902 79.5105 89.6088C79.7275 90.5091 79.9176 92.3679 79.9601 94.0051C80.167 101.942 78.3528 108.528 74.6281 113.361C72.7228 115.834 71.1052 117.199 68.4792 118.55C66.1115 119.769 62.2819 120.395 59.241 120.06C56.7781 119.79 53.7223 118.892 52.6473 118.123C51.8658 117.564 51.7821 117.197 50.358 108.101C50.2369 107.327 49.4066 100.674 48.5127 93.3171L46.8876 79.9406L47.4671 79.2684C47.786 78.8988 51.5728 75.9825 55.8822 72.7879C66.51 64.9097 73.0199 59.4343 76.6161 55.3488C78.5037 53.2046 78.9901 52.3632 78.6782 51.7813C78.3692 51.2046 78.028 51.4246 76.36 53.2755C72.1193 57.9822 65.7163 63.4554 55.0039 71.5294C46.7522 77.7489 46.6304 77.8393 46.4959 77.8559C46.438 77.863 46.2216 76.5002 46.015 74.8276C45.7184 72.4273 45.6939 71.0286 45.8977 68.1894C46.5047 59.7416 48.6984 53.9454 53.7163 47.5335C55.1513 45.6998 56.7299 43.8592 57.2239 43.4434C58.1165 42.6924 58.1369 42.6872 60.263 42.6904C69.3697 42.7035 74.9514 36.6967 72.6942 29.3119C72.4301 28.448 72.0224 27.4634 71.7884 27.1239C71.2036 26.2749 69.826 26.1143 67.1993 26.588C65.3604 26.9197 64.9009 27.1048 63.273 28.1714C59.4622 30.6677 57.3586 34.8548 57.0881 40.4815C57.054 41.1902 56.8102 41.5862 55.8214 42.5372C50.8555 47.3131 46.831 54.3552 45.2718 60.9968L44.8468 62.8073L44.4054 60.5061C44.1624 59.2408 43.5808 55.1106 43.1128 51.3281L42.2619 44.4509L43.1337 44.1945C50.6736 41.9778 54.7841 37.7984 54.9654 32.1648C55.0284 30.2083 54.4463 27.6819 53.5269 25.9194C52.7664 24.4624 51.8464 24.3227 49.597 25.3219C45.6969 27.0549 43.2211 30.4674 41.5712 36.3857C41.4462 36.8346 41.1576 35.1307 40.5211 30.1849C40.0383 26.4343 39.539 23.2846 39.4114 23.1856C39.2837 23.0869 38.9634 23.1042 38.7001 23.2245C38.2371 23.4357 38.2382 23.5842 38.7297 27.5621C39.0205 29.9155 39.1412 31.6368 39.011 31.5776C38.3238 31.2647 35.2479 24.5643 35.5211 23.9752C35.5644 23.8821 36.5083 23.3511 37.6188 22.7953C41.2268 20.9896 43.6387 18.6938 44.6821 16.0717C45.0926 15.0401 45.1671 14.3958 45.0564 12.8218C44.8571 9.98143 43.8771 8.15779 41.0815 5.425C40.0642 4.43057 39.8466 4.32381 39.0587 4.43215C38.5731 4.49908 37.6157 4.84666 36.9311 5.20475ZM40.512 7.16896C41.9332 8.64041 42.7504 9.88212 43.2612 11.3458C44.5866 15.1437 41.7617 19.2184 36.028 21.7792L34.7158 22.3652L34.2024 21.7934C30.5805 17.7561 31.8636 10.4499 36.7626 7.21403C38.8838 5.81319 39.1991 5.80938 40.512 7.16896ZM25.2424 27.0636C29.8813 27.6643 33.5773 30.5601 35.1706 34.8429C35.4635 35.6301 35.8196 37.2037 35.9619 38.3399C36.2172 40.3769 36.2122 40.4103 35.5992 40.7378C35.2573 40.9203 34.1624 41.2294 33.1659 41.4245C27.2729 42.5782 21.3017 39.5303 19.1748 34.283C18.3211 32.1768 18.118 28.2551 18.8317 27.6629C19.2935 27.28 23.7182 26.8662 25.2424 27.0636ZM52.6505 27.9915C54.1808 32.2711 53.1849 36.26 49.8835 39.0712C48.412 40.3238 46.6296 41.3225 44.5243 42.0734L42.934 42.6405L42.8665 40.861C42.8294 39.8822 43.013 38.0237 43.2743 36.7307C44.2027 32.1402 46.6703 28.5257 49.9897 26.8922C51.8413 25.9811 51.947 26.025 52.6505 27.9915ZM70.6594 28.6077C70.9636 29.0595 71.193 29.9803 71.3817 31.5072C71.6091 33.348 71.5874 33.9453 71.259 34.879C70.394 37.3401 67.9948 39.4553 64.9483 40.4432C63.3203 40.9709 59.3331 41.329 58.8908 40.9867C58.5082 40.6907 58.8691 37.8166 59.5434 35.792C60.6141 32.576 62.224 30.5532 64.9259 29.0294C65.9448 28.455 66.5365 28.2932 68.1919 28.1367C70.1763 27.949 70.222 27.9577 70.6594 28.6077ZM18.2069 47.7672C20.3523 48.0477 22.4903 48.9598 24.3037 50.3685C26.0923 51.7582 27.3439 53.3689 27.0219 53.867C26.7025 54.3614 24.3556 55.469 22.7153 55.8995C18.4209 57.0264 14.1447 55.419 12.3516 52.0039C11.9906 51.3162 11.6805 50.3705 11.6623 49.902C11.6318 49.1125 11.712 49.0107 12.7664 48.5023C14.1945 47.8132 16.3413 47.5233 18.2069 47.7672ZM68.4754 125.963C77.1656 124.976 84.4586 124.237 84.6825 124.321C85.3191 124.558 86.3216 126.47 87.0437 128.826C87.5545 130.492 87.7755 131.814 88.0175 134.649C88.5791 141.234 87.6129 146.922 85.3814 150.165L84.6033 151.296L25.5376 158.594L24.5075 157.686C21.5538 155.084 19.2323 149.802 18.1742 143.278C17.5019 139.132 17.5229 136.005 18.2381 133.766C18.4676 133.048 18.6859 132.438 18.7231 132.411C18.8527 132.317 51.4769 127.77 52.0733 127.763C52.4042 127.759 59.7851 126.949 68.4754 125.963ZM82.5661 153.45C82.6454 153.548 82.8723 166.296 83.07 181.779C83.2681 197.262 83.4652 210.221 83.5085 210.577L83.5873 211.225L80.0436 211.663C76.0668 212.154 76.4291 212.285 75.862 210.15C74.7967 206.139 71.2221 201.715 66.9549 199.125C58.4967 193.991 47.0304 194.741 39.0188 200.952L37.872 201.841L37.6839 201.311C37.5804 201.02 35.436 192.052 32.9185 181.383C30.4007 170.715 28.2226 161.543 28.0777 161.002L27.8148 160.018L55.1181 156.645C70.1353 154.789 82.4868 153.352 82.5661 153.45Z" fill="#FF5722"/>
</g>
<defs>
<clipPath id="clip0_908_911">
<rect width="75.4957" height="212.362" fill="white" transform="translate(0 9.25732) rotate(-7.04328)"/>
</clipPath>
</defs>
</svg>