<svg width="36" height="63" viewBox="0 0 36 63" fill="none" xmlns="http://www.w3.org/2000/svg">
<path d="M35.1204 1.86497C35.3915 1.91739 35.6538 1.74009 35.7062 1.46897C35.7586 1.19785 35.5813 0.935569 35.3102 0.883154L35.1204 1.86497ZM9.26388 32.3238L8.77353 32.4216L9.26388 32.3238ZM20.3318 38.785L20.6772 39.1465L20.3318 38.785ZM18.1544 30.599L18.4365 30.1861L18.4218 30.1761L18.4065 30.1672L18.1544 30.599ZM4.16536 30.7306L3.76095 30.4366L3.76093 30.4366L4.16536 30.7306ZM32.353 60.3712C32.5895 60.2286 32.6657 59.9213 32.5231 59.6848L30.2 55.8309C30.0574 55.5944 29.7501 55.5182 29.5136 55.6608C29.2771 55.8034 29.201 56.1106 29.3435 56.3471L31.4085 59.7729L27.9828 61.8379C27.7463 61.9805 27.6702 62.2878 27.8127 62.5243C27.9553 62.7608 28.2626 62.8369 28.4991 62.6943L32.353 60.3712ZM35.3102 0.883154C33.4085 0.515502 30.5263 0.943384 27.3872 2.0808C24.2296 3.22494 20.7455 5.11071 17.6234 7.73591C11.3702 12.9939 6.54608 21.2466 8.77353 32.4216L9.75423 32.2261C7.61423 21.4898 12.2237 13.5828 18.267 8.5013C21.2932 5.95677 24.6731 4.12788 27.7279 3.02098C30.8013 1.90736 33.48 1.54784 35.1204 1.86497L35.3102 0.883154ZM8.77353 32.4216C9.32851 35.2059 11.0941 37.9589 13.305 39.4971C14.4154 40.2696 15.6637 40.753 16.9465 40.7504C18.2405 40.7477 19.5217 40.2503 20.6772 39.1465L19.9864 38.4234C19.0011 39.3647 17.9612 39.7483 16.9445 39.7504C15.9167 39.7524 14.8648 39.3641 13.8762 38.6762C11.8891 37.2938 10.2615 34.7711 9.75423 32.2261L8.77353 32.4216ZM20.6772 39.1465C21.8026 38.0715 22.5242 36.6624 22.2636 35.0501C22.006 33.4568 20.8103 31.8077 18.4365 30.1861L17.8724 31.0119C20.14 32.5609 21.0814 34.0032 21.2764 35.2096C21.4683 36.3969 20.9578 37.4955 19.9864 38.4234L20.6772 39.1465ZM18.4065 30.1672C17.9221 29.8844 15.5241 28.248 12.6577 27.5256C11.2177 27.1627 9.62532 27.0198 8.06922 27.4092C6.50163 27.8014 5.00478 28.7259 3.76095 30.4366L4.56976 31.0247C5.67895 29.4991 6.97754 28.7132 8.31196 28.3793C9.65788 28.0425 11.074 28.1577 12.4134 28.4953C15.1057 29.1738 17.3492 30.7079 17.9024 31.0308L18.4065 30.1672ZM3.76093 30.4366C3.07073 31.386 -0.754964 36.2533 1.17263 42.2644C3.10104 48.2781 10.685 55.1523 31.9746 60.4283L32.2152 59.4577C10.9661 54.1917 3.87944 47.4306 2.12487 41.9591C0.369469 36.4849 3.84838 32.017 4.56978 31.0247L3.76093 30.4366Z" fill="white"/>
</svg>
