<svg width="454" height="13" viewBox="0 0 454 13" fill="none" xmlns="http://www.w3.org/2000/svg">
<path d="M1.09082 10.5401L15.1941 2L29.2974 10.5401L43.4007 2L57.504 10.5401L71.6073 2L85.7106 10.5401L99.8139 2L113.917 10.5401L128.021 2L142.124 10.5401L156.227 2L170.33 10.5401L184.434 2L198.537 10.5401L212.64 2L226.744 10.5401L240.847 2L254.95 10.5401L269.054 2L283.157 10.5401L297.26 2L311.363 10.5401L325.467 2L339.57 10.5401L353.673 2L367.777 10.5401L381.88 2L395.983 10.5401L410.087 2L424.19 10.5401L438.293 2L452.396 10.5401" stroke="#AEEA00" stroke-width="3"/>
</svg>
